# xmcd
#
# Track frame offsets:
#	150
#	16702
#	27024
#	45757
#	62960
#	93148
#	122335
#	139510
#	161850
#
# Disc length: 2530 seconds
#
# Revision: 1
# Processed by: cddbd v1.5.1PL0 Copyright (c) Steve Scherf et al.
# Submitted via: CDex 1.50Beta5
#
DISCID=5e09e009
DTITLE=Jo将ェo Gilberto - Live At The 19th Montreux Jazz Festival
DYEAR=1900
DGENRE=Latin
TTITLE0=Tim Tim Por Tim Tim
TTITLE1=Preconceito
TTITLE2=Sem Compromisso
TTITLE3=Menino Do Rio
TTITLE4=Retrato Em Branco
TTITLE5=Pra Que Discutir Com Madame
TTITLE6=Garota De Ipanema
TTITLE7=Desafinado
TTITLE8=O Pato
EXTD=
EXTT0=
EXTT1=
EXTT2=
EXTT3=
EXTT4=
EXTT5=
EXTT6=
EXTT7=
EXTT8=
PLAYORDER=
